<svg enable-background="new 0 0 100 80.673" fill="#ffc706" viewBox="0 0 100 80.673" xmlns="http://www.w3.org/2000/svg"><path d="m50.235 35.062c5.556 0 11.462-1.786 11.462-5.096v-6.247c0-.207-.023-.407-.068-.603-.09-.389-.264-.755-.514-1.096-.125-.171-.268-.334-.428-.493-.115-.113-.238-.222-.369-.33-.051-.041-.107-.079-.158-.118-.084-.064-.168-.128-.258-.189-.072-.049-.148-.096-.223-.144-.076-.048-.152-.096-.232-.143-.09-.053-.186-.104-.279-.154-.068-.037-.139-.074-.209-.11-.109-.055-.221-.108-.334-.16-.061-.028-.123-.055-.184-.082-.129-.056-.26-.111-.393-.164-.051-.02-.1-.038-.148-.058-.148-.056-.299-.112-.453-.165-.035-.012-.07-.023-.104-.035-.17-.057-.344-.112-.52-.165-1.09-.324-2.293-.562-3.537-.709-.504-.059-1.009-.104-1.52-.134-.001 0-.001 0-.001 0-.51-.03-1.021-.045-1.53-.045h-.001c-4.861 0-9.99 1.368-11.196 3.928-.172.365-.264.755-.264 1.169v.601 2.076 3.57c0 3.31 5.905 5.096 11.461 5.096zm9.519-5.096c0 1.285-3.707 3.152-9.517 3.152v-4.303c3.593-.001 7.324-.752 9.517-2.176zm-18.994-6.494c.025-.075.064-.152.111-.229.017-.027.04-.054.059-.081.036-.051.072-.102.117-.153.029-.033.064-.067.098-.1.043-.045.089-.09.141-.135.042-.038.089-.075.137-.112.05-.04.102-.08.157-.12.058-.042.119-.083.183-.125.053-.034.107-.068.164-.103.074-.045.152-.091.234-.136.051-.028.104-.054.156-.082.098-.05.195-.1.301-.148.037-.018.076-.034.114-.051 1.052-.473 2.485-.881 4.229-1.117.006-.001.012-.002.018-.002.25-.034.506-.063.769-.089.011-.001.021-.002.03-.003.264-.026.533-.048.809-.066h.003c.528-.034 1.075-.055 1.646-.055.6 0 1.178.02 1.73.058.925.062 1.781.174 2.562.32.055.01.109.02.162.031.619.121 1.188.264 1.705.422.051.016.104.033.156.049.25.08.49.163.715.25.002.001.006.002.01.004.215.084.414.172.604.262.047.022.094.044.139.066.186.091.361.184.518.277.004.003.008.006.014.009.152.091.285.184.408.276.033.025.066.049.098.074.119.096.229.191.318.287.25.266.381.527.381.768 0 1.286-3.709 3.153-9.518 3.153-.43 0-.843-.013-1.249-.033-.121-.005-.239-.014-.358-.021-.29-.018-.575-.041-.853-.067-.115-.012-.229-.022-.342-.035-.325-.037-.643-.08-.947-.127-.041-.007-.085-.012-.125-.018-.359-.059-.7-.126-1.029-.199-.047-.01-.092-.022-.139-.033-.282-.065-.553-.134-.809-.208-.051-.015-.103-.029-.152-.044-1.377-.408-2.389-.925-2.963-1.44-.022-.02-.044-.04-.064-.06-.051-.049-.102-.098-.146-.146-.058-.064-.11-.129-.153-.193-.02-.028-.033-.056-.049-.083-.029-.052-.056-.104-.076-.155-.01-.024-.02-.048-.027-.072-.021-.074-.038-.147-.038-.217-.002-.081.013-.164.041-.248z"/><path d="m99.961 21.099c-.008-.027-.02-.053-.031-.079-.021-.057-.047-.112-.078-.163-.018-.028-.035-.053-.055-.079-.035-.047-.078-.09-.123-.131-.021-.021-.041-.041-.064-.059-.01-.007-.018-.017-.027-.024-.062-.044-.131-.078-.201-.105-.002 0-.002-.002-.004-.002l-.002-.001c-.002 0-.002 0-.004-.001l-13.277-5.083v-.846c0-.207-.023-.408-.066-.603-.09-.39-.266-.755-.516-1.097-.123-.17-.268-.334-.428-.493-.113-.113-.238-.222-.369-.33-.049-.041-.105-.079-.158-.118-.084-.064-.168-.128-.258-.189-.072-.049-.148-.096-.223-.144-.076-.048-.15-.096-.232-.143-.09-.053-.184-.104-.279-.155-.068-.037-.137-.074-.209-.11-.107-.055-.221-.108-.334-.16-.061-.028-.123-.056-.184-.083-.129-.056-.258-.111-.393-.164-.049-.02-.1-.038-.148-.058-.148-.056-.299-.112-.453-.165-.033-.012-.068-.023-.104-.035-.17-.057-.344-.113-.52-.166-1.09-.324-2.291-.562-3.537-.709-.502-.059-1.01-.104-1.52-.134-.512-.03-1.021-.045-1.531-.045h-.002c-1.154 0-2.326.08-3.455.232l-9.713-3.718v-.842c0-.207-.023-.408-.068-.603-.09-.39-.264-.755-.514-1.096-.125-.171-.268-.334-.428-.493-.113-.113-.238-.222-.369-.33-.051-.041-.107-.079-.158-.118-.084-.064-.168-.128-.258-.189-.072-.049-.148-.096-.223-.144-.076-.048-.152-.096-.232-.143-.09-.053-.184-.104-.279-.154-.068-.037-.139-.074-.209-.11-.109-.055-.221-.108-.334-.16-.061-.028-.123-.056-.184-.082-.129-.056-.26-.111-.393-.164-.049-.02-.1-.038-.148-.058-.148-.056-.299-.112-.453-.165-.035-.012-.068-.023-.104-.035-.17-.057-.344-.112-.52-.165-1.09-.324-2.293-.562-3.537-.709-.504-.059-1.009-.104-1.52-.134-.001 0-.001 0-.001 0-.509-.03-1.021-.045-1.53-.045h-.001c-4.861 0-9.99 1.368-11.196 3.928-.172.365-.265.755-.265 1.169v.601l-9.787 3.688c.058.007.114.017.171.025-.09-.012-.179-.027-.27-.038-.502-.059-1.009-.104-1.52-.134-.001 0-.001 0-.001 0-.51-.03-1.021-.045-1.53-.045h-.001c-4.86 0-9.99 1.368-11.196 3.927-.172.366-.264.756-.264 1.169v.601l-13.511 5.09c-.074.027-.145.064-.211.109-.01.007-.017.016-.026.023-.024.018-.043.038-.065.059-.045.04-.087.083-.123.13-.02.025-.038.051-.055.078-.032.052-.057.105-.079.162-.011.026-.023.053-.031.081-.024.082-.039.167-.04.255 0 .004-.001.007-.001.01v.001s0 0 0 .001v39.953c0 .402.249.764.624.907l49.263 18.857c.008.004.018.002.027.006.104.035.211.059.32.059.107 0 .213-.021.316-.057.008-.004.018-.002.025-.006l48.794-18.386c.382-.14.632-.502.632-.906v-39.954c0-.091-.016-.179-.039-.264zm-28.584-9.513c.25-.033.506-.063.768-.089.012-.001.021-.002.031-.003.264-.026.533-.048.809-.065h.002c.529-.034 1.076-.056 1.646-.056.6 0 1.178.02 1.73.058.926.062 1.779.174 2.562.32.055.01.107.02.16.031.619.121 1.188.264 1.705.422.053.016.104.033.156.049.25.081.492.164.715.25.004.001.006.002.01.004.215.084.414.173.605.262.047.022.092.044.137.066.186.091.361.183.52.277.004.003.008.006.012.009.152.091.285.184.41.276.033.025.064.049.096.074.119.096.23.191.32.287.248.266.379.527.379.769 0 1.286-3.707 3.153-9.518 3.153-.43 0-.844-.013-1.248-.033-.123-.005-.24-.014-.359-.021-.291-.018-.576-.041-.854-.067-.113-.011-.229-.022-.34-.035-.326-.037-.643-.08-.949-.128-.039-.007-.084-.011-.123-.018-.359-.059-.701-.126-1.029-.199-.047-.01-.094-.022-.141-.033-.281-.065-.551-.135-.809-.208-.051-.015-.102-.03-.15-.044-1.377-.408-2.391-.925-2.965-1.44-.021-.02-.043-.04-.062-.06-.053-.049-.104-.098-.146-.146-.057-.064-.109-.129-.152-.193-.02-.028-.033-.056-.049-.083-.029-.052-.057-.104-.076-.155-.012-.024-.02-.048-.027-.072-.021-.074-.037-.146-.037-.217 0-.081.016-.163.043-.247.025-.075.064-.152.111-.229.016-.027.039-.054.059-.081.035-.051.072-.102.117-.153.029-.034.064-.067.098-.101.043-.045.09-.09.141-.135.043-.037.09-.075.137-.112.051-.04.102-.08.156-.12.059-.042.119-.083.184-.125.051-.034.107-.068.164-.103.074-.045.152-.091.234-.136.051-.027.104-.054.156-.082.096-.05.193-.1.301-.149.037-.017.076-.034.115-.051 1.051-.473 2.484-.881 4.229-1.116.004-.001.01-.002.016-.002zm12.773 5.86v3.327c0 1.285-3.707 3.153-9.516 3.153v-4.303c3.593-.002 7.323-.753 9.516-2.177zm-43.624-12.596c.025-.075.064-.152.111-.229.017-.027.04-.054.059-.081.036-.051.072-.102.117-.153.029-.033.064-.067.097-.1.044-.045.09-.09.141-.135.043-.038.09-.075.137-.112.051-.04.102-.08.157-.12.058-.042.119-.083.183-.125.053-.034.107-.068.164-.102.075-.045.152-.091.234-.136.051-.027.104-.054.156-.082.098-.05.195-.1.301-.148.037-.018.076-.034.115-.051 1.051-.473 2.484-.881 4.229-1.117.006-.001.012-.002.018-.002.25-.034.506-.063.769-.089.011-.001.021-.002.03-.003.264-.026.533-.048.809-.066h.003c.527-.034 1.074-.055 1.644-.055.6 0 1.178.02 1.73.057.925.062 1.781.174 2.562.32.055.01.109.02.162.031.619.12 1.188.264 1.705.422.051.016.104.033.156.049.25.08.49.163.715.25.002.001.006.003.01.004.215.084.414.172.605.262.047.022.092.044.137.066.186.091.361.184.518.277.004.003.008.006.014.009.152.091.285.184.408.276.033.025.066.049.098.074.119.096.23.191.318.287.25.266.381.527.381.768 0 1.286-3.707 3.153-9.518 3.153-.43 0-.843-.013-1.249-.033-.121-.005-.239-.014-.358-.021-.29-.018-.575-.041-.853-.067-.115-.012-.229-.022-.342-.035-.325-.037-.642-.08-.947-.128-.041-.006-.084-.011-.125-.018-.359-.059-.7-.126-1.029-.199-.047-.01-.092-.022-.139-.033-.282-.065-.553-.134-.809-.208-.051-.015-.102-.029-.152-.044-1.377-.408-2.389-.925-2.963-1.44-.022-.02-.043-.04-.063-.06-.051-.049-.103-.098-.146-.146-.058-.064-.11-.129-.153-.193-.019-.028-.033-.056-.049-.083-.029-.052-.056-.104-.076-.155-.01-.024-.02-.048-.027-.072-.021-.074-.038-.147-.038-.217 0-.08.015-.163.043-.247zm18.994 3.167v3.327c0 1.285-3.707 3.152-9.517 3.152v-4.303c3.593-.001 7.323-.752 9.517-2.176zm-29.701 1.525c-.053-.009-.104-.02-.156-.028.053.009.104.02.156.028zm.792.148c-.007-.002-.014-.004-.021-.005.007.001.014.003.021.005zm-14.482 4.353c.025-.075.064-.152.111-.229.017-.026.04-.053.059-.08.036-.051.072-.102.117-.153.029-.033.064-.067.097-.101.044-.044.089-.089.141-.134.042-.038.089-.075.137-.112.05-.041.102-.08.157-.12.058-.042.119-.083.183-.125.052-.034.108-.068.164-.102.075-.046.152-.091.235-.136.05-.027.104-.054.156-.082.097-.05.195-.1.301-.148.037-.018.076-.034.114-.051 1.052-.474 2.485-.881 4.229-1.117.006-.001.012-.002.018-.002.25-.034.506-.064.769-.089.011-.001.021-.002.031-.003.264-.026.533-.048.808-.065h.003c.529-.034 1.075-.056 1.646-.056.6 0 1.177.02 1.73.058.926.062 1.781.174 2.562.32.055.01.108.021.162.031.619.12 1.188.264 1.704.422.052.016.104.033.157.049.25.08.491.163.715.25.003.001.005.003.009.004.216.084.415.173.605.262l.138.066c.185.091.361.184.518.277.004.003.008.006.013.009.151.091.285.183.409.276.033.025.065.049.096.074.119.096.23.191.32.286.249.266.38.528.38.769 0 1.286-3.708 3.153-9.518 3.153-.43 0-.843-.013-1.249-.033-.122-.005-.239-.014-.358-.021-.291-.018-.576-.041-.853-.068-.114-.011-.229-.022-.341-.035-.325-.037-.642-.08-.948-.128-.041-.006-.084-.011-.125-.018-.359-.059-.7-.125-1.029-.199-.048-.01-.092-.022-.139-.033-.282-.065-.552-.134-.809-.208-.051-.015-.102-.029-.151-.044-1.377-.408-2.39-.925-2.964-1.44-.022-.02-.043-.04-.063-.06-.052-.049-.103-.098-.146-.147-.058-.064-.11-.129-.153-.192-.02-.028-.033-.056-.049-.084-.029-.052-.056-.104-.076-.155-.01-.024-.02-.048-.027-.072-.021-.074-.038-.146-.038-.217-.001-.08.014-.163.042-.247zm18.994 3.167v3.327c0 1.285-3.707 3.152-9.517 3.152v-4.303c3.593 0 7.322-.751 9.517-2.176zm-20.98-.244v3.571c0 3.31 5.905 5.096 11.46 5.096 5.557 0 11.462-1.787 11.462-5.096v-6.247c0-.207-.023-.408-.067-.603-.09-.39-.265-.755-.514-1.096-.125-.171-.268-.335-.428-.494-.114-.113-.238-.222-.37-.329-.049-.041-.106-.079-.158-.119-.084-.064-.167-.127-.257-.188-.072-.05-.148-.097-.224-.144-.076-.048-.151-.096-.231-.143-.09-.053-.185-.104-.28-.155-.068-.037-.138-.073-.209-.109-.108-.055-.221-.108-.334-.16-.06-.028-.122-.056-.184-.083-.128-.056-.258-.111-.392-.164-.049-.02-.099-.039-.148-.058-.149-.056-.299-.112-.453-.165-.035-.012-.07-.022-.104-.035-.13-.043-.264-.085-.398-.127l6.227-2.346v3.57c0 3.31 5.905 5.096 11.46 5.096 5.556 0 11.462-1.787 11.462-5.096v-3.32l6.254 2.394c-2.064.663-3.672 1.649-4.279 2.94-.174.365-.266.755-.266 1.169v.6 2.076 3.57c0 3.31 5.904 5.096 11.459 5.096 5.559 0 11.463-1.786 11.463-5.096v-3.321l10.199 3.904-32.922 12.407-13.134 4.949-21.186-8.11-25.343-9.702zm83.914 43.679-46.851 17.653v-37.879l46.851-17.652z"/></svg>